<?xml version="1.0" standalone="no"?>
<!DOCTYPE svg PUBLIC "-//W3C//DTD SVG 20010904//EN"
 "http://www.w3.org/TR/2001/REC-SVG-20010904/DTD/svg10.dtd">
<svg version="1.0" xmlns="http://www.w3.org/2000/svg"
 width="512.000000pt" height="512.000000pt" viewBox="0 0 512.000000 512.000000"
 preserveAspectRatio="xMidYMid meet">
<metadata>
Created by potrace 1.11, written by Peter Selinger 2001-2013
</metadata>
<g transform="translate(0.000000,512.000000) scale(0.100000,-0.100000)"
fill="#000000" stroke="none">
<path d="M0 2560 l0 -2560 2560 0 2560 0 0 2560 0 2560 -2560 0 -2560 0 0
-2560z m4020 1410 c109 -59 110 -63 110 -324 0 -213 -1 -223 -25 -274 -49
-106 -486 -766 -817 -1233 -80 -113 -153 -219 -162 -237 -22 -43 -20 -85 5
-108 20 -18 46 -19 463 -24 322 -4 447 -8 462 -17 34 -20 72 -70 84 -111 16
-59 13 -329 -5 -389 -18 -61 -67 -108 -122 -120 -65 -14 -2613 -9 -2724 5
-127 16 -218 44 -251 79 -53 55 -58 84 -58 311 0 293 6 312 185 587 230 355
461 690 688 998 128 174 138 199 91 236 -26 20 -38 21 -339 21 -350 0 -393 6
-439 61 l-26 31 0 199 c0 261 10 287 127 316 84 21 611 30 1738 29 l950 -1 65
-35z"/>
</g>
</svg>
